<?xml version="1.0" standalone="no"?>
<!DOCTYPE svg PUBLIC "-//W3C//DTD SVG 20010904//EN"
 "http://www.w3.org/TR/2001/REC-SVG-20010904/DTD/svg10.dtd">
<svg version="1.0" xmlns="http://www.w3.org/2000/svg"
 width="518.000000pt" height="600.000000pt" viewBox="0 0 518.000000 600.000000"
 preserveAspectRatio="xMidYMid meet">

<g transform="translate(0.000000,600.000000) scale(0.100000,-0.100000)"
fill="#000000" stroke="none">
<path d="M1309 5272 c-691 -400 -1268 -735 -1282 -745 l-27 -17 0 -1515 0
-1515 37 -24 c110 -70 2534 -1456 2548 -1456 17 0 2547 1450 2578 1477 16 15
17 100 17 1518 0 1418 -1 1503 -17 1518 -34 30 -2562 1487 -2580 1487 -10 -1
-583 -328 -1274 -728z m2554 -151 l1197 -693 -2 -1434 -3 -1435 -1175 -675
c-646 -372 -1202 -691 -1236 -710 l-60 -34 -1235 710 -1234 709 -3 1435 -2
1434 1237 716 1237 716 40 -23 c23 -13 580 -335 1239 -716z"/>
<path d="M1694 3702 c-72 -81 -191 -214 -264 -295 -124 -138 -132 -150 -122
-173 11 -23 14 -24 126 -24 l115 0 3 -512 c3 -508 3 -514 26 -569 45 -112 107
-172 227 -220 55 -22 74 -24 230 -24 109 1 186 5 214 13 l43 13 -7 77 c-10
115 -24 165 -44 156 -9 -4 -70 -9 -136 -11 -145 -5 -177 6 -212 77 -35 69 -43
189 -43 612 l0 388 198 2 197 3 9 58 c4 31 5 86 1 122 l-7 65 -199 0 -199 0 0
195 c0 149 -3 195 -12 195 -7 0 -72 -67 -144 -148z"/>
<path d="M3044 3475 c-206 -45 -366 -170 -459 -357 -73 -149 -89 -229 -89
-448 -1 -214 16 -302 81 -438 53 -109 177 -232 286 -285 143 -70 203 -81 442
-81 218 -1 302 11 433 61 l43 16 -6 51 c-7 60 -44 186 -55 186 -4 0 -33 -9
-64 -20 -145 -50 -392 -66 -524 -35 -170 40 -271 143 -308 314 -7 36 -14 87
-14 114 l0 47 530 0 530 0 0 140 c0 90 -6 169 -16 218 -58 280 -227 466 -472
517 -83 18 -256 18 -338 0z m332 -267 c66 -35 138 -115 163 -183 18 -47 41
-155 41 -192 0 -10 -84 -13 -386 -13 l-386 0 7 48 c26 174 119 308 247 354 82
29 245 21 314 -14z"/>
</g>
</svg>
